<?xml version="1.0" standalone="no"?><!DOCTYPE svg PUBLIC "-//W3C//DTD SVG 1.1//EN" "http://www.w3.org/Graphics/SVG/1.1/DTD/svg11.dtd"><svg t="1510146064683" class="icon" style="" viewBox="0 0 1024 1024" version="1.1" xmlns="http://www.w3.org/2000/svg" p-id="1977" xmlns:xlink="http://www.w3.org/1999/xlink" width="200" height="200"><defs><style type="text/css"></style></defs><path d="M320 857.6c-34.133333 0-64 29.866667-64 64C256 955.733333 285.866667 981.333333 320 981.333333 354.133333 981.333333 384 955.733333 384 917.333333S354.133333 857.6 320 857.6L320 857.6 320 857.6 320 857.6zM789.333333 857.6c-34.133333 0-64 29.866667-64 64 0 34.133333 29.866667 64 64 64 34.133333 0 64-29.866667 64-64S823.466667 857.6 789.333333 857.6L789.333333 857.6 789.333333 857.6 789.333333 857.6zM810.666667 768 298.666667 768c-42.666667 0-72.533333-59.733333-76.8-106.666667L170.666667 128 128 128C81.066667 128 85.333333 89.6 85.333333 72.533333 85.333333 55.466667 98.133333 42.666667 115.2 42.666667l38.4 0c42.666667 0 98.133333 42.666667 102.4 85.333333l42.666667 469.333333c0 0 8.533333 85.333333 42.666667 85.333333l469.333333 0c0 0 42.666667 4.266667 42.666667 42.666667C853.333333 763.733333 810.666667 768 810.666667 768zM341.333333 554.666667c0-29.866667 25.6-42.666667 42.666667-42.666667l341.333333 0c64 0 76.8 0 85.333333-42.666667 38.4-153.6 59.733333-170.666667-42.666667-170.666667L341.333333 298.666667C324.266667 298.666667 298.666667 298.666667 298.666667 251.733333 298.666667 234.666667 324.266667 213.333333 341.333333 213.333333l469.333333 0c98.133333 4.266667 136.533333 17.066667 128 85.333333l-42.666667 213.333333c-21.333333 64-72.533333 72.533333-128 85.333333L384 597.333333C384 597.333333 345.6 597.333333 341.333333 554.666667z" p-id="1978" fill="#ffffff"></path></svg>